<?xml version="1.0" standalone="no"?>
<!DOCTYPE svg PUBLIC "-//W3C//DTD SVG 20010904//EN"
 "http://www.w3.org/TR/2001/REC-SVG-20010904/DTD/svg10.dtd">
<svg version="1.0" xmlns="http://www.w3.org/2000/svg"
 width="161.000000pt" height="164.000000pt" viewBox="0 0 161.000000 164.000000"
 preserveAspectRatio="xMidYMid meet">

<g transform="translate(0.000000,164.000000) scale(0.100000,-0.100000)"
fill="#000000" stroke="none">
<path d="M675 1400 l-239 -240 -171 7 c-196 7 -236 0 -255 -47 -9 -21 -11
-109 -8 -315 l3 -287 34 -30 34 -31 181 8 181 7 233 -236 234 -236 44 0 c34 0
51 6 69 25 l25 24 0 298 c0 164 2 505 6 759 5 337 3 467 -5 482 -6 12 -25 29
-41 37 -66 34 -67 33 -325 -225z"/>
<path d="M1158 1094 c-59 -32 -49 -93 29 -176 l57 -59 -62 -62 c-62 -62 -73
-88 -56 -132 8 -19 55 -45 84 -45 13 0 48 25 86 62 l65 62 52 -51 c85 -83 120
-92 168 -44 44 45 39 71 -31 146 -33 35 -60 68 -60 73 0 4 27 34 60 67 38 37
60 68 60 82 0 58 -50 101 -102 88 -14 -4 -49 -31 -79 -61 -29 -30 -56 -54 -60
-54 -4 0 -37 27 -73 60 -70 63 -91 70 -138 44z"/>
</g>
</svg>
